# xmcd
#
# Track frame offsets:
#	150
#	16678
#	27723
#	48076
#	64446
#	75575
#	92225
#	106350
#	122306
#	142676
#	150371
#	160837
#
# Disc length: 2435 seconds
#
# Revision: 2
# Processed by: cddbd v1.5.2PL0 Copyright (c) Steve Scherf et al.
# Submitted via: audiograbber 1.83.01
#
DISCID=8609810c
DTITLE=Ron Block - DoorWay
DYEAR=2007
DGENRE=Bluegrass
TTITLE0=The Kind Of Love
TTITLE1=Along The Way
TTITLE2=Love's Living Through Me When I Do
TTITLE3=Things Aren't Always As They Seem
TTITLE4=Be Assured
TTITLE5=DoorWay
TTITLE6=Above The Line
TTITLE7=The Blackness Of The Need
TTITLE8=Flame
TTITLE9=Secret Of The Woods
TTITLE10=I See Thee Nevermore
TTITLE11=Someone
EXTD=Spelling errors corrected
EXTT0=
EXTT1=
EXTT2=
EXTT3=
EXTT4=
EXTT5=
EXTT6=
EXTT7=
EXTT8=
EXTT9=
EXTT10=
EXTT11=
PLAYORDER=
